<?xml version="1.0" encoding="UTF-8" standalone="no"?>
<svg data-v-34a61ac9="" version="1.1" xmlns:dc="http://purl.org/dc/elements/1.1/" xmlns:cc="http://creativecommons.org/ns#" xmlns:rdf="http://www.w3.org/1999/02/22-rdf-syntax-ns#" xmlns:svg="http://www.w3.org/2000/svg" xmlns="http://www.w3.org/2000/svg" xmlns:xlink="http://www.w3.org/1999/xlink" x="0px" y="0px" xml:space="preserve" class="bayleyssvg"><rect data-v-34a61ac9="" x="1.3" y="3.1" width="8.2" height="6.9" class="bayleys"></rect> <path data-v-34a61ac9="" d="M9.5,41l0-28.1H1.3l0,34.1h1.1C5.4,47,8.8,44.9,9.5,41z" class="bayleys"></path> <path data-v-34a61ac9="" d="M21.3,39.2l0-36.2h-8.2l0,44h1.1C17.2,47,20.6,44.2,21.3,39.2z" class="bayleys"></path> <polygon data-v-34a61ac9="" points="40.4,47 50.8,47 31.7,24.1 49.3,3 38.9,3 26.5,17.9 21.3,24.1 26.5,30.3 " class="bayleys"></polygon> <path data-v-34a61ac9="" d="M74.3,16.7l0,25.2H59l0-25.2h-6.2l0,24.6c0.6,3.7,3.1,5.7,5.3,5.7H59l0,0h15.4h4.8h1.4l0-30.3 H74.3z" class="bayleys"></path> <path data-v-34a61ac9="" d="M117,33.2L117,33.2l0-6.4l0,0l0-4.1l0,0v-0.9c0-2.3-2.1-5-5.9-5.5H84l0,6.4h27.9l0,4.1h-22 C86,27.4,84,30,84,32.3l0,0.9l0,0V40l0,0v0.9v0l0,0.1h0c0.1,2.3,2.1,4.9,5.8,5.4H117V40l0,0L117,33.2z M89.2,40l0-6.8h22.6l0,6.8 H89.2z" class="bayleys"></path> <rect data-v-34a61ac9="" x="120.4" y="3.2" width="8.2" height="6.9" class="bayleys"></rect> <path data-v-34a61ac9="" d="M128.7,41l0-28.1h-8.2l0,34.1h1.1C124.6,47,127.9,44.9,128.7,41z" class="bayleys"></path> <rect data-v-34a61ac9="" x="1.3" y="3.1" width="8.2" height="6.9" class="bayleysB"></rect> <path data-v-34a61ac9="" d="M9.5,41l0-28.1H1.3l0,34.1h1.1C5.4,47,8.8,44.9,9.5,41z" class="bayleysB"></path> <path data-v-34a61ac9="" d="M21.3,39.2l0-36.2h-8.2l0,44h1.1C17.2,47,20.6,44.2,21.3,39.2z" class="bayleysB"></path> <polygon data-v-34a61ac9="" points="40.4,47 50.8,47 31.7,24.1 49.3,3 38.9,3 26.5,17.9 21.3,24.1 26.5,30.3 " class="bayleysB"></polygon> <path data-v-34a61ac9="" d="M74.3,16.7l0,25.2H59l0-25.2h-6.2l0,24.6c0.6,3.7,3.1,5.7,5.3,5.7H59l0,0h15.4h4.8h1.4l0-30.3 H74.3z" class="bayleysB"></path> <path data-v-34a61ac9="" d="M117,33.2L117,33.2l0-6.4l0,0l0-4.1l0,0v-0.9c0-2.3-2.1-5-5.9-5.5H84l0,6.4h27.9l0,4.1h-22 C86,27.4,84,30,84,32.3l0,0.9l0,0V40l0,0v0.9v0l0,0.1h0c0.1,2.3,2.1,4.9,5.8,5.4H117V40l0,0L117,33.2z M89.2,40l0-6.8h22.6l0,6.8 H89.2z" class="bayleysB"></path> <rect data-v-34a61ac9="" x="120.4" y="3.2" width="8.2" height="6.9" class="bayleysB"></rect> <path data-v-34a61ac9="" d="M128.7,41l0-28.1h-8.2l0,34.1h1.1C124.6,47,127.9,44.9,128.7,41z" class="bayleysB"></path></svg>
